<?xml version="1.0" standalone="no"?>
<!DOCTYPE svg PUBLIC "-//W3C//DTD SVG 20010904//EN"
 "http://www.w3.org/TR/2001/REC-SVG-20010904/DTD/svg10.dtd">
<svg version="1.0" xmlns="http://www.w3.org/2000/svg"
 width="140.000000pt" height="140.000000pt" viewBox="0 0 140.000000 140.000000"
 preserveAspectRatio="xMidYMid meet">
<metadata>
Created by potrace 1.11, written by Peter Selinger 2001-2013
</metadata>
<g transform="translate(0.000000,140.000000) scale(0.100000,-0.100000)"
fill="#000000" stroke="none">
<path d="M637 1344 c-2 -3 -17 -7 -32 -10 -23 -4 -132 -59 -145 -73 -3 -4 -27
-21 -55 -40 -42 -28 -59 -34 -115 -36 -36 -2 -72 -4 -80 -4 -16 -2 41 -56 219
-209 24 -21 32 -35 27 -47 -6 -16 -8 -17 -24 -1 -10 9 -21 16 -24 16 -4 0 -22
15 -41 33 -19 17 -49 43 -66 57 -18 14 -48 40 -69 58 -72 66 -75 65 -87 -23
-4 -27 -11 -52 -15 -55 -4 -3 -10 -16 -11 -30 -2 -14 -6 -27 -9 -30 -13 -11
-60 -100 -54 -100 3 0 1 -6 -5 -14 -20 -24 -38 -102 -38 -162 -1 -86 16 -132
82 -229 45 -67 74 -135 81 -192 3 -21 9 -42 14 -47 5 -5 48 31 104 86 53 52
97 94 99 92 1 -2 11 10 22 26 23 34 44 45 58 31 6 -6 -35 -54 -117 -134 -69
-68 -128 -122 -131 -120 -3 1 -1 -2 4 -9 6 -6 38 -12 73 -14 83 -3 110 -10
172 -41 28 -15 53 -27 56 -28 3 0 15 -7 28 -14 41 -22 117 -37 178 -35 60 2
174 38 174 55 0 5 7 9 15 9 8 0 24 9 35 20 11 11 22 20 25 20 3 0 28 11 57 26
52 27 81 35 133 39 17 2 33 3 38 4 18 2 3 21 -55 71 -135 113 -187 163 -182
171 9 15 30 10 55 -14 27 -24 131 -112 162 -137 11 -8 27 -23 37 -33 21 -22
32 -11 35 37 5 62 13 85 64 188 29 58 54 112 55 119 2 8 6 22 10 31 4 9 5 48
2 85 -6 85 -8 93 -16 93 -4 0 -10 12 -13 28 -3 15 -21 52 -39 82 -43 71 -78
152 -78 182 0 13 -5 30 -10 38 -10 16 -12 14 -176 -145 -74 -73 -104 -91 -104
-64 0 5 48 58 108 118 150 150 144 141 86 140 -27 -1 -61 4 -76 10 -16 6 -28
7 -28 3 0 -4 -4 -1 -8 6 -5 7 -22 15 -38 18 -16 3 -30 9 -32 15 -2 5 -10 9
-18 9 -8 0 -14 5 -14 10 0 5 -3 9 -7 8 -5 -1 -23 6 -42 16 -19 10 -49 23 -65
28 -33 11 -180 20 -189 12z"/>
</g>
</svg>
